<mxfile host="app.diagrams.net" agent="Mozilla/5.0 (Windows NT 10.0; Win64; x64) AppleWebKit/537.36 (KHTML, like Gecko) Chrome/134.0.0.0 Safari/537.36" version="26.1.1">
  <diagram name="Page-1" id="c4acf3e9-155e-7222-9cf6-157b1a14988f">
    <mxGraphModel dx="778" dy="413" grid="1" gridSize="10" guides="1" tooltips="1" connect="1" arrows="1" fold="1" page="1" pageScale="1" pageWidth="850" pageHeight="1100" background="none" math="0" shadow="0">
      <root>
        <mxCell id="0" />
        <mxCell id="1" parent="0" />
        <mxCell id="9HSg58_yhdT0rbfQZzlI-48" value="" style="rounded=0;whiteSpace=wrap;html=1;fillColor=none;dashed=1;" vertex="1" parent="1">
          <mxGeometry x="540" y="20" width="250" height="170" as="geometry" />
        </mxCell>
        <mxCell id="17acba5748e5396b-1" value="Sistema" style="shape=umlFrame;whiteSpace=wrap;html=1;rounded=0;shadow=0;comic=0;labelBackgroundColor=none;strokeWidth=1;fontFamily=Verdana;fontSize=10;align=center;" parent="1" vertex="1">
          <mxGeometry x="15" y="10" width="820" height="1060" as="geometry" />
        </mxCell>
        <mxCell id="9HSg58_yhdT0rbfQZzlI-1" value="Militar" style="shape=umlActor;verticalLabelPosition=bottom;verticalAlign=top;html=1;" vertex="1" parent="1">
          <mxGeometry x="100" y="100" width="30" height="60" as="geometry" />
        </mxCell>
        <mxCell id="9HSg58_yhdT0rbfQZzlI-42" style="edgeStyle=orthogonalEdgeStyle;rounded=0;orthogonalLoop=1;jettySize=auto;html=1;exitX=0.5;exitY=0;exitDx=0;exitDy=0;entryX=0;entryY=0.5;entryDx=0;entryDy=0;dashed=1;" edge="1" parent="1" source="9HSg58_yhdT0rbfQZzlI-2" target="9HSg58_yhdT0rbfQZzlI-4">
          <mxGeometry relative="1" as="geometry" />
        </mxCell>
        <mxCell id="9HSg58_yhdT0rbfQZzlI-2" value="&lt;font style=&quot;font-size: 10px;&quot;&gt;Registrar missão&lt;/font&gt;" style="ellipse;whiteSpace=wrap;html=1;" vertex="1" parent="1">
          <mxGeometry x="300" y="80" width="90" height="40" as="geometry" />
        </mxCell>
        <mxCell id="9HSg58_yhdT0rbfQZzlI-4" value="&lt;font style=&quot;font-size: 10px;&quot;&gt;Gerar log da missão&lt;/font&gt;" style="ellipse;whiteSpace=wrap;html=1;" vertex="1" parent="1">
          <mxGeometry x="441" y="30" width="90" height="40" as="geometry" />
        </mxCell>
        <mxCell id="9HSg58_yhdT0rbfQZzlI-5" style="edgeStyle=orthogonalEdgeStyle;rounded=0;orthogonalLoop=1;jettySize=auto;html=1;exitX=0;exitY=0.5;exitDx=0;exitDy=0;endArrow=none;startFill=0;entryX=1;entryY=0.5;entryDx=0;entryDy=0;" edge="1" parent="1" source="9HSg58_yhdT0rbfQZzlI-2" target="9HSg58_yhdT0rbfQZzlI-14">
          <mxGeometry relative="1" as="geometry">
            <mxPoint x="140" y="130" as="targetPoint" />
          </mxGeometry>
        </mxCell>
        <mxCell id="9HSg58_yhdT0rbfQZzlI-21" style="edgeStyle=orthogonalEdgeStyle;rounded=0;orthogonalLoop=1;jettySize=auto;html=1;exitX=0.5;exitY=0;exitDx=0;exitDy=0;entryX=0.5;entryY=1;entryDx=0;entryDy=0;dashed=1;" edge="1" parent="1" source="9HSg58_yhdT0rbfQZzlI-7" target="9HSg58_yhdT0rbfQZzlI-2">
          <mxGeometry relative="1" as="geometry" />
        </mxCell>
        <mxCell id="9HSg58_yhdT0rbfQZzlI-7" value="&lt;font style=&quot;font-size: 10px;&quot;&gt;Operar drone&amp;nbsp;&lt;/font&gt;" style="ellipse;whiteSpace=wrap;html=1;" vertex="1" parent="1">
          <mxGeometry x="300" y="187" width="90" height="40" as="geometry" />
        </mxCell>
        <mxCell id="9HSg58_yhdT0rbfQZzlI-26" style="edgeStyle=orthogonalEdgeStyle;rounded=0;orthogonalLoop=1;jettySize=auto;html=1;entryX=0.5;entryY=1;entryDx=0;entryDy=0;" edge="1" parent="1" target="9HSg58_yhdT0rbfQZzlI-25">
          <mxGeometry relative="1" as="geometry">
            <mxPoint x="595" y="210" as="sourcePoint" />
            <Array as="points">
              <mxPoint x="595" y="210" />
            </Array>
          </mxGeometry>
        </mxCell>
        <mxCell id="9HSg58_yhdT0rbfQZzlI-8" value="Drone" style="shape=umlActor;verticalLabelPosition=bottom;verticalAlign=top;html=1;" vertex="1" parent="1">
          <mxGeometry x="580" y="220" width="30" height="60" as="geometry" />
        </mxCell>
        <mxCell id="9HSg58_yhdT0rbfQZzlI-14" value="&lt;font style=&quot;font-size: 10px;&quot;&gt;Realizar autenticação&lt;/font&gt;" style="ellipse;whiteSpace=wrap;html=1;" vertex="1" parent="1">
          <mxGeometry x="160" y="110" width="90" height="40" as="geometry" />
        </mxCell>
        <mxCell id="9HSg58_yhdT0rbfQZzlI-15" style="edgeStyle=orthogonalEdgeStyle;rounded=0;orthogonalLoop=1;jettySize=auto;html=1;exitX=0;exitY=0.5;exitDx=0;exitDy=0;endArrow=none;startFill=0;" edge="1" parent="1" source="9HSg58_yhdT0rbfQZzlI-14">
          <mxGeometry relative="1" as="geometry">
            <mxPoint x="120" y="130" as="targetPoint" />
            <Array as="points">
              <mxPoint x="130" y="130" />
              <mxPoint x="130" y="130" />
            </Array>
          </mxGeometry>
        </mxCell>
        <mxCell id="9HSg58_yhdT0rbfQZzlI-16" value="&lt;font style=&quot;font-size: 10px;&quot;&gt;Gerar log de acesso&lt;/font&gt;" style="ellipse;whiteSpace=wrap;html=1;" vertex="1" parent="1">
          <mxGeometry x="160" y="36" width="90" height="40" as="geometry" />
        </mxCell>
        <mxCell id="9HSg58_yhdT0rbfQZzlI-17" value="" style="endArrow=block;dashed=1;endFill=0;endSize=12;html=1;rounded=0;exitX=0.5;exitY=0;exitDx=0;exitDy=0;entryX=0.5;entryY=1;entryDx=0;entryDy=0;strokeWidth=1;" edge="1" parent="1" source="9HSg58_yhdT0rbfQZzlI-14" target="9HSg58_yhdT0rbfQZzlI-16">
          <mxGeometry width="160" relative="1" as="geometry">
            <mxPoint x="240" y="90" as="sourcePoint" />
            <mxPoint x="291" y="40" as="targetPoint" />
          </mxGeometry>
        </mxCell>
        <mxCell id="9HSg58_yhdT0rbfQZzlI-18" value="&lt;font style=&quot;font-size: 8px;&quot;&gt;&amp;lt;&amp;lt;include&amp;gt;&amp;gt;&lt;/font&gt;" style="text;align=center;fontStyle=1;verticalAlign=middle;spacingLeft=3;spacingRight=3;strokeColor=none;rotatable=0;points=[[0,0.5],[1,0.5]];portConstraint=eastwest;html=1;" vertex="1" parent="1">
          <mxGeometry x="190" y="87" width="80" height="26" as="geometry" />
        </mxCell>
        <mxCell id="9HSg58_yhdT0rbfQZzlI-22" value="&lt;font style=&quot;font-size: 8px;&quot;&gt;&amp;lt;&amp;lt;extend&amp;gt;&amp;gt;&lt;/font&gt;" style="text;align=center;fontStyle=1;verticalAlign=middle;spacingLeft=3;spacingRight=3;strokeColor=none;rotatable=0;points=[[0,0.5],[1,0.5]];portConstraint=eastwest;html=1;" vertex="1" parent="1">
          <mxGeometry x="334" y="143" width="80" height="26" as="geometry" />
        </mxCell>
        <mxCell id="9HSg58_yhdT0rbfQZzlI-24" style="edgeStyle=orthogonalEdgeStyle;rounded=0;orthogonalLoop=1;jettySize=auto;html=1;exitX=1;exitY=0.5;exitDx=0;exitDy=0;" edge="1" parent="1" source="9HSg58_yhdT0rbfQZzlI-7">
          <mxGeometry relative="1" as="geometry">
            <mxPoint x="570" y="240" as="targetPoint" />
            <Array as="points">
              <mxPoint x="510" y="207" />
              <mxPoint x="510" y="240" />
            </Array>
          </mxGeometry>
        </mxCell>
        <mxCell id="9HSg58_yhdT0rbfQZzlI-25" value="&lt;font style=&quot;font-size: 10px;&quot;&gt;Efetuar instruções&lt;/font&gt;" style="ellipse;whiteSpace=wrap;html=1;" vertex="1" parent="1">
          <mxGeometry x="550" y="113" width="90" height="40" as="geometry" />
        </mxCell>
        <mxCell id="9HSg58_yhdT0rbfQZzlI-33" style="edgeStyle=orthogonalEdgeStyle;rounded=0;orthogonalLoop=1;jettySize=auto;html=1;exitX=1;exitY=0.5;exitDx=0;exitDy=0;entryX=0;entryY=0.5;entryDx=0;entryDy=0;" edge="1" parent="1" source="9HSg58_yhdT0rbfQZzlI-29" target="9HSg58_yhdT0rbfQZzlI-25">
          <mxGeometry relative="1" as="geometry">
            <Array as="points">
              <mxPoint x="530" y="120" />
              <mxPoint x="530" y="133" />
            </Array>
          </mxGeometry>
        </mxCell>
        <mxCell id="9HSg58_yhdT0rbfQZzlI-29" value="&lt;font style=&quot;font-size: 10px;&quot;&gt;Fornecer instruções&lt;/font&gt;" style="ellipse;whiteSpace=wrap;html=1;" vertex="1" parent="1">
          <mxGeometry x="425" y="100" width="90" height="40" as="geometry" />
        </mxCell>
        <mxCell id="9HSg58_yhdT0rbfQZzlI-30" style="edgeStyle=orthogonalEdgeStyle;rounded=0;orthogonalLoop=1;jettySize=auto;html=1;exitX=0;exitY=0.5;exitDx=0;exitDy=0;entryX=1;entryY=0.5;entryDx=0;entryDy=0;dashed=1;" edge="1" parent="1" source="9HSg58_yhdT0rbfQZzlI-29" target="9HSg58_yhdT0rbfQZzlI-2">
          <mxGeometry relative="1" as="geometry">
            <mxPoint x="355" y="197" as="sourcePoint" />
            <mxPoint x="355" y="130" as="targetPoint" />
          </mxGeometry>
        </mxCell>
        <mxCell id="9HSg58_yhdT0rbfQZzlI-31" value="&lt;font style=&quot;font-size: 8px;&quot;&gt;&amp;lt;&amp;lt;extend&amp;gt;&amp;gt;&lt;/font&gt;" style="text;align=center;fontStyle=1;verticalAlign=middle;spacingLeft=3;spacingRight=3;strokeColor=none;rotatable=0;points=[[0,0.5],[1,0.5]];portConstraint=eastwest;html=1;" vertex="1" parent="1">
          <mxGeometry x="360" y="110" width="80" height="26" as="geometry" />
        </mxCell>
        <mxCell id="9HSg58_yhdT0rbfQZzlI-36" style="edgeStyle=orthogonalEdgeStyle;rounded=0;orthogonalLoop=1;jettySize=auto;html=1;exitX=0.5;exitY=1;exitDx=0;exitDy=0;entryX=0.5;entryY=0;entryDx=0;entryDy=0;dashed=1;" edge="1" parent="1" source="9HSg58_yhdT0rbfQZzlI-34" target="9HSg58_yhdT0rbfQZzlI-25">
          <mxGeometry relative="1" as="geometry" />
        </mxCell>
        <mxCell id="9HSg58_yhdT0rbfQZzlI-39" style="edgeStyle=orthogonalEdgeStyle;rounded=0;orthogonalLoop=1;jettySize=auto;html=1;exitX=1;exitY=0.5;exitDx=0;exitDy=0;entryX=0;entryY=0.5;entryDx=0;entryDy=0;dashed=1;" edge="1" parent="1" source="9HSg58_yhdT0rbfQZzlI-34" target="9HSg58_yhdT0rbfQZzlI-38">
          <mxGeometry relative="1" as="geometry" />
        </mxCell>
        <mxCell id="9HSg58_yhdT0rbfQZzlI-34" value="&lt;font style=&quot;font-size: 10px;&quot;&gt;Analisar feedback dos sensores&lt;/font&gt;" style="ellipse;whiteSpace=wrap;html=1;" vertex="1" parent="1">
          <mxGeometry x="550" y="40" width="90" height="40" as="geometry" />
        </mxCell>
        <mxCell id="9HSg58_yhdT0rbfQZzlI-37" value="&lt;font style=&quot;font-size: 8px;&quot;&gt;&amp;lt;&amp;lt;extend&amp;gt;&amp;gt;&lt;/font&gt;" style="text;align=center;fontStyle=1;verticalAlign=middle;spacingLeft=3;spacingRight=3;strokeColor=none;rotatable=0;points=[[0,0.5],[1,0.5]];portConstraint=eastwest;html=1;" vertex="1" parent="1">
          <mxGeometry x="580" y="80" width="80" height="26" as="geometry" />
        </mxCell>
        <mxCell id="9HSg58_yhdT0rbfQZzlI-40" style="edgeStyle=orthogonalEdgeStyle;rounded=0;orthogonalLoop=1;jettySize=auto;html=1;exitX=0.5;exitY=1;exitDx=0;exitDy=0;entryX=1;entryY=0.5;entryDx=0;entryDy=0;dashed=1;" edge="1" parent="1" source="9HSg58_yhdT0rbfQZzlI-38" target="9HSg58_yhdT0rbfQZzlI-25">
          <mxGeometry relative="1" as="geometry" />
        </mxCell>
        <mxCell id="9HSg58_yhdT0rbfQZzlI-38" value="&lt;font style=&quot;font-size: 10px;&quot;&gt;Gerar novas instruções&lt;/font&gt;" style="ellipse;whiteSpace=wrap;html=1;" vertex="1" parent="1">
          <mxGeometry x="690" y="40" width="90" height="40" as="geometry" />
        </mxCell>
        <mxCell id="9HSg58_yhdT0rbfQZzlI-41" value="&lt;font style=&quot;font-size: 8px;&quot;&gt;&amp;lt;&amp;lt;include&amp;gt;&amp;gt;&lt;/font&gt;" style="text;align=center;fontStyle=1;verticalAlign=middle;spacingLeft=3;spacingRight=3;strokeColor=none;rotatable=0;points=[[0,0.5],[1,0.5]];portConstraint=eastwest;html=1;" vertex="1" parent="1">
          <mxGeometry x="626" y="40" width="80" height="26" as="geometry" />
        </mxCell>
        <mxCell id="9HSg58_yhdT0rbfQZzlI-43" value="&lt;font style=&quot;font-size: 8px;&quot;&gt;&amp;lt;&amp;lt;include&amp;gt;&amp;gt;&lt;/font&gt;" style="text;align=center;fontStyle=1;verticalAlign=middle;spacingLeft=3;spacingRight=3;strokeColor=none;rotatable=0;points=[[0,0.5],[1,0.5]];portConstraint=eastwest;html=1;" vertex="1" parent="1">
          <mxGeometry x="320" y="30" width="80" height="26" as="geometry" />
        </mxCell>
        <mxCell id="9HSg58_yhdT0rbfQZzlI-49" value="IA" style="text;html=1;align=center;verticalAlign=middle;whiteSpace=wrap;rounded=0;" vertex="1" parent="1">
          <mxGeometry x="750" y="169" width="60" height="30" as="geometry" />
        </mxCell>
        <mxCell id="9HSg58_yhdT0rbfQZzlI-50" value="&lt;font style=&quot;font-size: 8px;&quot;&gt;&amp;lt;&amp;lt;include&amp;gt;&amp;gt;&lt;/font&gt;" style="text;align=center;fontStyle=1;verticalAlign=middle;spacingLeft=3;spacingRight=3;strokeColor=none;rotatable=0;points=[[0,0.5],[1,0.5]];portConstraint=eastwest;html=1;" vertex="1" parent="1">
          <mxGeometry x="670" y="113" width="80" height="26" as="geometry" />
        </mxCell>
      </root>
    </mxGraphModel>
  </diagram>
</mxfile>
